<svg width="1200" height="630" viewBox="0 0 1200 630" fill="none" xmlns="http://www.w3.org/2000/svg">
  <!-- 배경 그라데이션 -->
  <defs>
    <linearGradient id="bg-gradient" x1="0%" y1="0%" x2="100%" y2="100%">
      <stop offset="0%" style="stop-color:#EBF4FF"/>
      <stop offset="100%" style="stop-color:#C7D2FE"/>
    </linearGradient>
  </defs>
  <rect width="1200" height="630" fill="url(#bg-gradient)"/>
  
  <!-- 제목 -->
  <text x="600" y="200" font-family="Arial, sans-serif" font-size="60" font-weight="bold" text-anchor="middle" fill="#1E40AF">
    테니스 토너먼트 관리 시스템
  </text>
  
  <!-- 부제목 -->
  <text x="600" y="260" font-family="Arial, sans-serif" font-size="32" text-anchor="middle" fill="#3B82F6">
    Tennis Tournament Manager
  </text>
  
  <!-- 설명 -->
  <text x="600" y="320" font-family="Arial, sans-serif" font-size="24" text-anchor="middle" fill="#6B7280">
    실시간 다중 사용자 대진표 관리 시스템
  </text>
  
  <!-- 트로피 아이콘 -->
  <g transform="translate(480, 350)">
    <rect x="40" y="80" width="40" height="40" fill="#FFD700" rx="4"/>
    <rect x="20" y="120" width="80" height="10" fill="#FFD700" rx="4"/>
    <path d="M20 80L20 30C20 10 30 0 60 0C90 0 100 10 100 30L100 80" fill="#FFD700"/>
    <circle cx="60" cy="40" r="20" fill="#FFA500"/>
    <path d="M0 30C0 20 10 20 10 30V50C10 60 0 60 0 50V30Z" fill="#FFD700"/>
    <path d="M120 30C120 20 110 20 110 30V50C110 60 120 60 120 50V30Z" fill="#FFD700"/>
    <circle cx="60" cy="40" r="10" fill="#FF6B35"/>
  </g>
  
  <!-- 테니스공 아이콘 -->
  <g transform="translate(650, 350)">
    <circle cx="60" cy="60" r="50" fill="#B7E726" stroke="#2C5530" stroke-width="4"/>
    <path d="M15 60C35 50 45 40 60 50C75 40 85 50 105 60" stroke="#ffffff" stroke-width="4" fill="none"/>
    <path d="M105 60C85 70 75 80 60 70C45 80 35 70 15 60" stroke="#ffffff" stroke-width="4" fill="none"/>
  </g>
  
  <!-- 특징 리스트 -->
  <text x="200" y="480" font-family="Arial, sans-serif" font-size="20" fill="#374151">✓ 실시간 동기화</text>
  <text x="200" y="510" font-family="Arial, sans-serif" font-size="20" fill="#374151">✓ 다중 사용자 지원</text>
  <text x="200" y="540" font-family="Arial, sans-serif" font-size="20" fill="#374151">✓ 모바일 반응형</text>
  
  <text x="600" y="480" font-family="Arial, sans-serif" font-size="20" fill="#374151">✓ 토너먼트 대진표</text>
  <text x="600" y="510" font-family="Arial, sans-serif" font-size="20" fill="#374151">✓ 팀 관리 시스템</text>
  <text x="600" y="540" font-family="Arial, sans-serif" font-size="20" fill="#374151">✓ 점수 입력 및 추적</text>
</svg>
